<svg xmlns="http://www.w3.org/2000/svg" viewBox="0 0 1500 500" width="1500" height="500">
  <title>spectacles banner</title>
  <desc>README banner, dark theme.</desc>
  <rect width="1500" height="500" fill="#1a1f2e"/>

  <g stroke="#f4ecd8" stroke-width="0.4" fill="none" opacity="0.07">
    <line x1="0" y1="125" x2="1500" y2="125"/>
    <line x1="0" y1="250" x2="1500" y2="250"/>
    <line x1="0" y1="375" x2="1500" y2="375"/>
    <line x1="375" y1="0" x2="375" y2="500"/>
    <line x1="750" y1="0" x2="750" y2="500"/>
    <line x1="1125" y1="0" x2="1125" y2="500"/>
  </g>

  <line x1="60" y1="40" x2="1440" y2="40" stroke="#f4ecd8" stroke-width="1"/>
  <line x1="60" y1="44" x2="1440" y2="44" stroke="#f4ecd8" stroke-width="0.4"/>
  <text x="60" y="32" font-family="Fraunces, Georgia, serif" font-size="10" font-style="italic" fill="#8a8276" letter-spacing="2.5">VOL · I</text>
  <text x="750" y="32" text-anchor="middle" font-family="Fraunces, Georgia, serif" font-size="10" font-style="italic" fill="#8a8276" letter-spacing="2.5">SPECTACLES — A SPEC-DRIVEN AGENT SUITE FOR GITHUB ACTIONS</text>
  <text x="1440" y="32" text-anchor="end" font-family="Fraunces, Georgia, serif" font-size="10" font-style="italic" fill="#8a8276" letter-spacing="2.5">ED · MMXXVI</text>

  <line x1="60" y1="456" x2="1440" y2="456" stroke="#f4ecd8" stroke-width="0.4"/>
  <line x1="60" y1="460" x2="1440" y2="460" stroke="#f4ecd8" stroke-width="1"/>
  <text x="60" y="480" font-family="Fraunces, Georgia, serif" font-size="12" font-style="italic" fill="#a8a08c">Fig. 01 — Agentic workflow topology · one spec, many actions</text>
  <text x="1440" y="480" text-anchor="end" font-family="Fraunces, Georgia, serif" font-size="10" font-style="italic" fill="#8a8276" letter-spacing="2.5">§ 1 · TOPOLOGY</text>

  <g transform="translate(100 250)">
    <text x="0" y="0" font-family="Fraunces, Georgia, serif" font-size="82" font-weight="500" fill="#f4ecd8" letter-spacing="-1.2">spectacles</text>
    <line x1="6" y1="22" x2="160" y2="22" stroke="#d4a445" stroke-width="1.6"/>
    <text x="6" y="52" font-family="Fraunces, Georgia, serif" font-size="14" font-style="italic" fill="#a8a08c" letter-spacing="3">SPEC-DRIVEN DEVELOPMENT AGENTS</text>
    <text x="6" y="76" font-family="Fraunces, Georgia, serif" font-size="14" font-style="italic" fill="#a8a08c" letter-spacing="3">BUILT AS GITHUB ACTIONS WORKFLOWS</text>
  </g>

  <line x1="630" y1="100" x2="630" y2="400" stroke="#f4ecd8" stroke-width="0.4" opacity="0.4"/>

  <g stroke="#f4ecd8" stroke-width="1" fill="none" opacity="0.55">
    <path d="M680 110 L 680 90 L 700 90"/>
    <path d="M1420 90 L 1440 90 L 1440 110"/>
    <path d="M680 400 L 680 420 L 700 420"/>
    <path d="M1420 420 L 1440 420 L 1440 400"/>
  </g>

  <g transform="translate(1060 255)" fill="none" stroke="#f4ecd8" stroke-linecap="round" stroke-linejoin="round">
    <circle cx="-300" cy="0" r="7" fill="#f4ecd8" stroke="none"/>
    <line x1="-315" y1="0" x2="-305" y2="0" stroke-width="1.6"/>
    <line x1="-300" y1="-7" x2="-300" y2="-50" stroke-width="0.6" stroke-dasharray="2 3"/>
    <text x="-300" y="-72" text-anchor="middle" font-family="Fraunces, Georgia, serif" font-size="10" font-weight="500" font-style="italic" fill="#d4a445" stroke="none" letter-spacing="1">i.</text>
    <text x="-300" y="-56" text-anchor="middle" font-family="Fraunces, Georgia, serif" font-size="12" fill="#f4ecd8" stroke="none" letter-spacing="0.5">spec issue</text>

    <path d="M-293 0 L -245 0" stroke-width="2"/>
    <circle cx="-240" cy="0" r="4" fill="#f4ecd8" stroke="none"/>
    <path d="M-236 0 L -210 0" stroke-width="2.5"/>

    <circle cx="-160" cy="0" r="48" stroke-width="2.5"/>
    <line x1="-176" y1="0" x2="-144" y2="0" stroke-width="1"/>
    <line x1="-160" y1="-16" x2="-160" y2="16" stroke-width="1"/>
    <circle cx="-160" cy="0" r="3" fill="#f4ecd8" stroke="none"/>
    <line x1="-160" y1="-44" x2="-160" y2="-38" stroke-width="1.1"/>
    <line x1="-160" y1="38" x2="-160" y2="44" stroke-width="1.1"/>

    <line x1="-160" y1="-48" x2="-160" y2="-90" stroke-width="0.6" stroke-dasharray="2 3"/>
    <text x="-160" y="-112" text-anchor="middle" font-family="Fraunces, Georgia, serif" font-size="10" font-weight="500" font-style="italic" fill="#d4a445" stroke="none" letter-spacing="1">ii.</text>
    <text x="-160" y="-96" text-anchor="middle" font-family="Fraunces, Georgia, serif" font-size="12" fill="#f4ecd8" stroke="none" letter-spacing="0.5">observe</text>

    <path d="M-112 -3 Q -106 -14 -100 -3" stroke-width="2.5"/>

    <circle cx="-52" cy="0" r="48" stroke-width="2.5"/>
    <line x1="-68" y1="0" x2="-36" y2="0" stroke-width="1"/>
    <line x1="-52" y1="-16" x2="-52" y2="16" stroke-width="1"/>
    <circle cx="-52" cy="0" r="4.5" fill="#d4a445" stroke="none"/>
    <line x1="-52" y1="-44" x2="-52" y2="-38" stroke-width="1.1"/>
    <line x1="-52" y1="38" x2="-52" y2="44" stroke-width="1.1"/>

    <line x1="-52" y1="-48" x2="-52" y2="-90" stroke-width="0.6" stroke-dasharray="2 3"/>
    <text x="-52" y="-112" text-anchor="middle" font-family="Fraunces, Georgia, serif" font-size="10" font-weight="500" font-style="italic" fill="#d4a445" stroke="none" letter-spacing="1">iii.</text>
    <text x="-52" y="-96" text-anchor="middle" font-family="Fraunces, Georgia, serif" font-size="12" fill="#f4ecd8" stroke="none" letter-spacing="0.5">decide</text>

    <path d="M-4 0 L 26 0" stroke-width="2.5"/>
    <circle cx="30" cy="0" r="4" fill="#f4ecd8" stroke="none"/>

    <path d="M34 0 L 70 -48 L 100 -48" stroke-width="1.8"/>
    <path d="M34 0 L 100 0" stroke-width="1.8"/>
    <path d="M34 0 L 70 48 L 100 48" stroke-width="1.8"/>

    <circle cx="108" cy="-48" r="5" fill="#d4a445" stroke="none"/>
    <circle cx="108" cy="0" r="5" fill="#d4a445" stroke="none"/>
    <circle cx="108" cy="48" r="5" fill="#d4a445" stroke="none"/>

    <text x="140" y="-44" font-family="Fraunces, Georgia, serif" font-size="12" fill="#f4ecd8" stroke="none" letter-spacing="0.5">plan</text>
    <text x="140" y="4" font-family="Fraunces, Georgia, serif" font-size="12" fill="#f4ecd8" stroke="none" letter-spacing="0.5">execute</text>
    <text x="140" y="52" font-family="Fraunces, Georgia, serif" font-size="12" fill="#f4ecd8" stroke="none" letter-spacing="0.5">review</text>

    <line x1="170" y1="-48" x2="220" y2="-48" stroke-width="1" opacity="0.45"/>
    <line x1="180" y1="0" x2="220" y2="0" stroke-width="1" opacity="0.45"/>
    <line x1="170" y1="48" x2="220" y2="48" stroke-width="1" opacity="0.45"/>
    <circle cx="225" cy="-48" r="3" fill="#f4ecd8" stroke="none" opacity="0.6"/>
    <circle cx="225" cy="0" r="3" fill="#f4ecd8" stroke="none" opacity="0.6"/>
    <circle cx="225" cy="48" r="3" fill="#f4ecd8" stroke="none" opacity="0.6"/>

    <line x1="190" y1="65" x2="190" y2="100" stroke-width="0.6" stroke-dasharray="2 3"/>
    <text x="190" y="122" text-anchor="middle" font-family="Fraunces, Georgia, serif" font-size="10" font-weight="500" font-style="italic" fill="#d4a445" stroke="none" letter-spacing="1">iv.</text>
    <text x="190" y="138" text-anchor="middle" font-family="Fraunces, Georgia, serif" font-size="12" fill="#f4ecd8" stroke="none" letter-spacing="0.5">act</text>
  </g>
</svg>
