<svg xmlns="http://www.w3.org/2000/svg" viewBox="0 0 1280 640" width="1280" height="640">
  <title>spectacles social card</title>
  <desc>Open Graph card, dark theme.</desc>
  <rect width="1280" height="640" fill="#1a1f2e"/>

  <g stroke="#f4ecd8" stroke-width="0.4" fill="none" opacity="0.08">
    <line x1="0" y1="160" x2="1280" y2="160"/>
    <line x1="0" y1="320" x2="1280" y2="320"/>
    <line x1="0" y1="480" x2="1280" y2="480"/>
    <line x1="320" y1="0" x2="320" y2="640"/>
    <line x1="640" y1="0" x2="640" y2="640"/>
    <line x1="960" y1="0" x2="960" y2="640"/>
  </g>

  <line x1="60" y1="60" x2="1220" y2="60" stroke="#f4ecd8" stroke-width="1.2"/>
  <line x1="60" y1="65" x2="1220" y2="65" stroke="#f4ecd8" stroke-width="0.4"/>
  <text x="60" y="50" font-family="Fraunces, Georgia, serif" font-size="12" font-style="italic" fill="#8a8276" letter-spacing="2.5">VOL · I</text>
  <text x="640" y="50" text-anchor="middle" font-family="Fraunces, Georgia, serif" font-size="12" font-style="italic" fill="#8a8276" letter-spacing="2.5">SPECTACLES — A SPEC-DRIVEN AGENT SUITE</text>
  <text x="1220" y="50" text-anchor="end" font-family="Fraunces, Georgia, serif" font-size="12" font-style="italic" fill="#8a8276" letter-spacing="2.5">ED · MMXXVI</text>

  <line x1="60" y1="580" x2="1220" y2="580" stroke="#f4ecd8" stroke-width="0.4"/>
  <line x1="60" y1="585" x2="1220" y2="585" stroke="#f4ecd8" stroke-width="1.2"/>
  <text x="60" y="608" font-family="Fraunces, Georgia, serif" font-size="13" fill="#a8a08c" letter-spacing="1.5">github.com/norrietaylor/spectacles</text>
  <text x="1220" y="608" text-anchor="end" font-family="Fraunces, Georgia, serif" font-size="14" font-style="italic" fill="#a8a08c">Fig. 01 — Agentic workflow topology</text>

  <g transform="translate(80 260)">
    <g transform="translate(110 -90) scale(0.55)" fill="none" stroke="#f4ecd8" stroke-linecap="round" stroke-linejoin="round">
      <circle cx="-138" cy="0" r="5" fill="#f4ecd8" stroke="none"/>
      <line x1="-150" y1="0" x2="-144" y2="0" stroke-width="2.4"/>
      <path d="M-132 0 L -98 0" stroke-width="3"/>
      <circle cx="-95" cy="0" r="3" fill="#f4ecd8" stroke="none"/>
      <path d="M-92 0 L -78 0" stroke-width="3.8"/>
      <circle cx="-42" cy="0" r="36" stroke-width="3.8"/>
      <line x1="-54" y1="0" x2="-30" y2="0" stroke-width="1.6"/>
      <line x1="-42" y1="-12" x2="-42" y2="12" stroke-width="1.6"/>
      <circle cx="-42" cy="0" r="2.5" fill="#f4ecd8" stroke="none"/>
      <path d="M-6 -3 Q 0 -11 6 -3" stroke-width="3.8"/>
      <circle cx="42" cy="0" r="36" stroke-width="3.8"/>
      <line x1="30" y1="0" x2="54" y2="0" stroke-width="1.6"/>
      <line x1="42" y1="-12" x2="42" y2="12" stroke-width="1.6"/>
      <circle cx="42" cy="0" r="4.5" fill="#d4a445" stroke="none"/>
      <path d="M78 0 L 92 0" stroke-width="3.8"/>
      <circle cx="95" cy="0" r="3" fill="#f4ecd8" stroke="none"/>
      <path d="M97 0 L 115 -28 L 132 -28" stroke-width="2.8"/>
      <path d="M97 0 L 132 0" stroke-width="2.8"/>
      <path d="M97 0 L 115 28 L 132 28" stroke-width="2.8"/>
      <circle cx="136" cy="-28" r="5" fill="#d4a445" stroke="none"/>
      <circle cx="136" cy="0" r="5" fill="#d4a445" stroke="none"/>
      <circle cx="136" cy="28" r="5" fill="#d4a445" stroke="none"/>
    </g>
    <text x="0" y="0" font-family="Fraunces, Georgia, serif" font-size="96" font-weight="500" fill="#f4ecd8" letter-spacing="-1.5">spectacles</text>
    <line x1="6" y1="22" x2="120" y2="22" stroke="#d4a445" stroke-width="1.2"/>
    <text x="6" y="58" font-family="Fraunces, Georgia, serif" font-size="18" font-style="italic" fill="#a8a08c" letter-spacing="3.5">SPEC-DRIVEN AGENTS</text>
    <text x="6" y="86" font-family="Fraunces, Georgia, serif" font-size="18" font-style="italic" fill="#a8a08c" letter-spacing="3.5">GITHUB ACTIONS WORKFLOWS</text>
  </g>

  <g stroke="#f4ecd8" stroke-width="1" fill="none" opacity="0.55">
    <path d="M680 130 L 680 110 L 700 110"/>
    <path d="M1200 110 L 1220 110 L 1220 130"/>
    <path d="M680 530 L 680 550 L 700 550"/>
    <path d="M1200 550 L 1220 550 L 1220 530"/>
  </g>

  <g transform="translate(950 330)" fill="none" stroke="#f4ecd8" stroke-linecap="round" stroke-linejoin="round">
    <circle cx="-220" cy="0" r="7" fill="#f4ecd8" stroke="none"/>
    <line x1="-235" y1="0" x2="-225" y2="0" stroke-width="1.6"/>
    <line x1="-220" y1="-7" x2="-220" y2="-50" stroke-width="0.6" stroke-dasharray="2 3"/>
    <text x="-220" y="-72" text-anchor="middle" font-family="Fraunces, Georgia, serif" font-size="11" font-weight="500" font-style="italic" fill="#d4a445" stroke="none" letter-spacing="1">i.</text>
    <text x="-220" y="-55" text-anchor="middle" font-family="Fraunces, Georgia, serif" font-size="13" fill="#f4ecd8" stroke="none" letter-spacing="0.5">spec issue</text>

    <path d="M-213 0 L -175 0" stroke-width="2"/>
    <circle cx="-170" cy="0" r="4" fill="#f4ecd8" stroke="none"/>
    <path d="M-166 0 L -145 0" stroke-width="2.5"/>

    <circle cx="-100" cy="0" r="44" stroke-width="2.5"/>
    <line x1="-114" y1="0" x2="-86" y2="0" stroke-width="1"/>
    <line x1="-100" y1="-14" x2="-100" y2="14" stroke-width="1"/>
    <circle cx="-100" cy="0" r="2.5" fill="#f4ecd8" stroke="none"/>
    <line x1="-100" y1="-40" x2="-100" y2="-35" stroke-width="1.1"/>
    <line x1="-100" y1="35" x2="-100" y2="40" stroke-width="1.1"/>

    <line x1="-100" y1="-44" x2="-100" y2="-90" stroke-width="0.6" stroke-dasharray="2 3"/>
    <text x="-100" y="-112" text-anchor="middle" font-family="Fraunces, Georgia, serif" font-size="11" font-weight="500" font-style="italic" fill="#d4a445" stroke="none" letter-spacing="1">ii.</text>
    <text x="-100" y="-95" text-anchor="middle" font-family="Fraunces, Georgia, serif" font-size="13" fill="#f4ecd8" stroke="none" letter-spacing="0.5">observe</text>

    <path d="M-56 -3 Q -50 -13 -44 -3" stroke-width="2.5"/>

    <circle cx="0" cy="0" r="44" stroke-width="2.5"/>
    <line x1="-14" y1="0" x2="14" y2="0" stroke-width="1"/>
    <line x1="0" y1="-14" x2="0" y2="14" stroke-width="1"/>
    <circle cx="0" cy="0" r="4" fill="#d4a445" stroke="none"/>
    <line x1="0" y1="-40" x2="0" y2="-35" stroke-width="1.1"/>
    <line x1="0" y1="35" x2="0" y2="40" stroke-width="1.1"/>

    <line x1="0" y1="-44" x2="0" y2="-90" stroke-width="0.6" stroke-dasharray="2 3"/>
    <text x="0" y="-112" text-anchor="middle" font-family="Fraunces, Georgia, serif" font-size="11" font-weight="500" font-style="italic" fill="#d4a445" stroke="none" letter-spacing="1">iii.</text>
    <text x="0" y="-95" text-anchor="middle" font-family="Fraunces, Georgia, serif" font-size="13" fill="#f4ecd8" stroke="none" letter-spacing="0.5">decide</text>

    <path d="M44 0 L 70 0" stroke-width="2.5"/>
    <circle cx="73" cy="0" r="4" fill="#f4ecd8" stroke="none"/>

    <path d="M76 0 L 105 -42 L 130 -42" stroke-width="1.8"/>
    <path d="M76 0 L 130 0" stroke-width="1.8"/>
    <path d="M76 0 L 105 42 L 130 42" stroke-width="1.8"/>

    <circle cx="138" cy="-42" r="5" fill="#d4a445" stroke="none"/>
    <circle cx="138" cy="0" r="5" fill="#d4a445" stroke="none"/>
    <circle cx="138" cy="42" r="5" fill="#d4a445" stroke="none"/>

    <text x="170" y="-38" font-family="Fraunces, Georgia, serif" font-size="13" fill="#f4ecd8" stroke="none" letter-spacing="0.5">plan</text>
    <text x="170" y="4" font-family="Fraunces, Georgia, serif" font-size="13" fill="#f4ecd8" stroke="none" letter-spacing="0.5">execute</text>
    <text x="170" y="46" font-family="Fraunces, Georgia, serif" font-size="13" fill="#f4ecd8" stroke="none" letter-spacing="0.5">review</text>

    <line x1="155" y1="60" x2="155" y2="100" stroke-width="0.6" stroke-dasharray="2 3"/>
    <text x="155" y="122" text-anchor="middle" font-family="Fraunces, Georgia, serif" font-size="11" font-weight="500" font-style="italic" fill="#d4a445" stroke="none" letter-spacing="1">iv.</text>
    <text x="155" y="138" text-anchor="middle" font-family="Fraunces, Georgia, serif" font-size="13" fill="#f4ecd8" stroke="none" letter-spacing="0.5">act</text>
  </g>

  <g transform="translate(220 480)" opacity="0.6">
    <circle cx="-12" cy="0" r="1.5" fill="#f4ecd8"/>
    <line x1="-6" y1="0" x2="6" y2="0" stroke="#f4ecd8" stroke-width="0.6"/>
    <circle cx="0" cy="0" r="2.5" fill="#d4a445"/>
    <circle cx="12" cy="0" r="1.5" fill="#f4ecd8"/>
  </g>
</svg>
